HIERARCHY
ROOT Hips
{
	OFFSET -3.958830 18.904000 13.208200
	CHANNELS 6 Xposition Yposition Zposition Zrotation Yrotation Xrotation 
	JOINT LHipJoint
	{
		OFFSET 0.000000 0.000000 0.000000
		CHANNELS 3 Zrotation Yrotation Xrotation
		JOINT LeftUpLeg
		{
			OFFSET 1.800000 -1.400000 0.085000
			CHANNELS 3 Zrotation Yrotation Xrotation
			JOINT LeftLeg
			{
				OFFSET 2.215000 -6.000000 0.000000
				CHANNELS 3 Zrotation Yrotation Xrotation
				JOINT LeftFoot
				{
					OFFSET 2.500000 -6.900000 0.000000
					CHANNELS 3 Zrotation Yrotation Xrotation
					JOINT LeftToeBase
					{
						OFFSET 0.200000 -0.500000 1.950000
						CHANNELS 3 Zrotation Yrotation Xrotation
						End Site
						{
							OFFSET 0.000000 0.000000 0.000000
						}
					}
				}
			}
		}
	}
	JOINT RHipJoint
	{
		OFFSET 0.000000 0.000000 0.000000
		CHANNELS 3 Zrotation Yrotation Xrotation
		JOINT RightUpLeg
		{
			OFFSET -1.800000 -1.400000 0.085000
			CHANNELS 3 Zrotation Yrotation Xrotation
			JOINT RightLeg
			{
				OFFSET -2.215000 -6.000000 0.000000
				CHANNELS 3 Zrotation Yrotation Xrotation
				JOINT RightFoot
				{
					OFFSET -2.500000 -6.900000 0.000000
					CHANNELS 3 Zrotation Yrotation Xrotation
					JOINT RightToeBase
					{
						OFFSET -0.200000 -0.500000 1.950000
						CHANNELS 3 Zrotation Yrotation Xrotation
						End Site
						{
							OFFSET 0.000000 0.000000 0.000000
						}
					}
				}
			}
		}
	}
	JOINT LowerBack
	{
		OFFSET 0.000000 0.000000 0.000000
		CHANNELS 3 Zrotation Yrotation Xrotation
		JOINT Spine
		{
			OFFSET -0.087000 1.940000 -0.288900
			CHANNELS 3 Zrotation Yrotation Xrotation
			JOINT Spine1
			{
				OFFSET 0.000000 1.950000 0.060000
				CHANNELS 3 Zrotation Yrotation Xrotation
				JOINT Neck
				{
					OFFSET 0.000000 0.000000 0.000000
					CHANNELS 3 Zrotation Yrotation Xrotation
					JOINT Neck1
					{
						OFFSET 0.000000 1.600000 0.340000
						CHANNELS 3 Zrotation Yrotation Xrotation
						JOINT Head
						{
							OFFSET 0.000000 1.667000 -0.240000
							CHANNELS 3 Zrotation Yrotation Xrotation
							End Site
							{
								OFFSET 0.000000 0.000000 0.000000
							}
						}
					}
				}
				JOINT LeftShoulder
				{
					OFFSET 0.000000 0.000000 0.000000
					CHANNELS 3 Zrotation Yrotation Xrotation
					JOINT LeftArm
					{
						OFFSET 2.700000 1.550000 -0.730000
						CHANNELS 3 Zrotation Yrotation Xrotation
						JOINT LeftForeArm
						{
							OFFSET 5.450000 0.000000 0.000000
							CHANNELS 3 Zrotation Yrotation Xrotation
							JOINT LeftHand
							{
								OFFSET 3.450000 0.000000 0.000000
								CHANNELS 3 Zrotation Yrotation Xrotation
								JOINT LeftHandIndex1
								{
									OFFSET 0.750000 0.000000 0.000000
									CHANNELS 3 Zrotation Yrotation Xrotation
									End Site
									{
										OFFSET 0.000000 0.000000 0.000000
									}
								}
							}
						}
					}
				}
				JOINT RightShoulder
				{
					OFFSET 0.000000 0.000000 0.000000
					CHANNELS 3 Zrotation Yrotation Xrotation
					JOINT RightArm
					{
						OFFSET -2.700000 1.550000 -0.730000
						CHANNELS 3 Zrotation Yrotation Xrotation
						JOINT RightForeArm
						{
							OFFSET -5.450000 0.000000 0.000000
							CHANNELS 3 Zrotation Yrotation Xrotation
							JOINT RightHand
							{
								OFFSET -3.450000 0.000000 0.000000
								CHANNELS 3 Zrotation Yrotation Xrotation
								JOINT RightHandIndex1
								{
									OFFSET -0.750000 0.000000 0.000000
									CHANNELS 3 Zrotation Yrotation Xrotation
									End Site
									{
										OFFSET 0.000000 0.000000 0.000000
									}
								}
							}
						}
					}
				}
			}
		}
	}
}
MOTION
Frames: 14
Frame Time: 0.016667
-0.346710 17.117280 -4.272430 -5.935635 29.171317 -1.988826 -15.336107 13.273439 2.787824 6.659309 -2.106657 -13.850114 -7.705581 5.619006 11.758775 -0.254481 3.902012 3.273993 0.230310 0.130000 0.103380 18.102493 -9.806850 3.899502 -4.037980 5.447569 -37.288099 8.718107 -2.909764 9.463357 0.273110 -1.761953 3.688778 0.197760 0.236590 0.140120 -3.701657 -2.516239 -8.162546 9.555775 -5.328432 16.646425 5.019889 -5.606050 8.270882 -1.207803 -0.614447 -11.463011 -3.294474 -4.716429 32.064628 -3.611620 -5.095170 -2.559580 -4.354881 -28.583597 4.008394 11.028947 -25.251341 -0.302414 -0.666441 -17.788785 1.653918 -3.876310 3.067833 -0.005080 0.217940 -0.148560 0.137750 7.196192 28.787559 5.156501 0.752007 27.165322 -8.067305 -44.471332 43.252959 -16.404218 1.995139 -1.404174 -0.077930 0.111280 -0.026230 -0.016490 
-0.343170 17.109710 -4.272590 -5.912006 30.219584 -2.292924 -15.336872 13.307463 2.784318 6.488142 -2.128425 -13.953630 -7.391023 5.603095 12.217992 -0.272042 3.894179 3.277907 0.242010 0.140230 0.116830 18.094233 -9.854348 3.879924 -4.040635 5.384913 -37.459271 8.399451 -3.083672 10.790208 0.264727 -1.816050 3.661491 0.208660 0.233810 0.140670 -3.733276 -2.504429 -8.145925 9.656077 -5.694713 16.842449 4.575616 -5.938436 8.698250 -1.085971 -0.408394 -11.728746 -2.934099 -4.886473 31.959628 -3.822400 -5.131480 -2.750100 -4.229775 -29.546859 4.094269 11.160511 -25.925231 -0.317299 0.775675 -14.068832 1.045615 -3.939991 2.992070 -0.000100 0.217860 -0.145380 0.140270 6.782799 29.478795 5.204799 0.431637 27.867623 -8.173167 -44.094914 40.171425 -15.551416 2.034773 -1.459797 -0.082190 0.115630 -0.033020 -0.020700 
-0.343480 17.086200 -4.270860 -5.611151 31.898750 -3.118647 -15.341837 13.414143 2.775359 6.012716 -2.036253 -13.635191 -6.687871 5.575174 13.025914 -0.273291 3.879082 3.286099 0.242120 0.147200 0.111170 18.068404 -9.944370 3.860529 -3.918321 5.400273 -37.711759 8.076960 -3.614799 14.339965 0.243238 -2.029747 3.581086 0.213030 0.234980 0.130920 -3.778188 -2.532263 -8.135467 9.581703 -6.283226 17.856113 3.382677 -6.342593 9.744116 -0.811145 -0.269224 -12.504044 -2.791718 -4.696178 32.341607 -3.582120 -5.154660 -2.704210 -3.739269 -31.637154 4.408160 11.618312 -26.248808 -0.730214 4.068114 -7.456713 0.066730 -4.081465 2.863695 -0.003000 0.214810 -0.147000 0.142380 5.643798 31.302962 5.353426 -1.178719 28.870441 -8.675735 -42.609766 33.952622 -13.561129 2.136933 -1.561905 -0.083570 0.122620 -0.034250 -0.017070 
-0.346750 17.077670 -4.275610 -5.617827 33.835809 -4.854142 -15.339200 13.551541 2.732238 5.713830 -1.908352 -13.050439 -5.758670 5.669629 14.810462 -0.259627 3.945148 3.259098 0.260290 0.168070 0.120040 18.045810 -10.046962 3.861149 -3.902487 5.589453 -37.823911 8.190382 -4.719550 20.317658 0.148539 -2.597475 3.367483 0.215490 0.217490 0.119870 -3.875193 -2.558433 -8.133601 9.981776 -7.032387 19.739949 1.807760 -6.689697 10.693258 -0.485562 -0.422032 -13.023216 -3.335667 -4.684681 33.668938 -2.984690 -5.794860 -3.453450 -3.477317 -33.533165 4.550696 11.855701 -25.970431 -1.649793 7.308945 -4.544307 -0.464654 -4.138580 2.809893 0.021150 0.183800 -0.123980 0.148020 4.655688 33.185861 5.270932 -2.388058 30.168898 -9.258223 -41.334589 28.728456 -12.050626 2.236611 -1.613109 -0.076490 0.140110 -0.042720 -0.012710 
-0.345410 17.064790 -4.289390 -5.956106 35.094970 -6.308150 -15.315416 13.512394 2.631214 5.665119 -1.936699 -13.016266 -5.173485 5.894966 17.101434 -0.249803 4.094595 3.194765 0.268220 0.174790 0.112810 18.088141 -10.038633 4.002665 -3.680112 6.462550 -39.095808 8.202303 -6.316206 28.478017 -0.019054 -3.676885 2.964663 0.220940 0.211740 0.112820 -4.054588 -2.409798 -8.174058 11.048877 -7.521233 21.142491 0.204982 -6.666725 11.217158 -0.177314 -0.772367 -12.881486 -4.099230 -4.707966 34.917127 -2.530560 -6.539690 -3.547940 -3.987789 -34.454949 4.610801 11.339976 -26.046969 -2.734828 10.812898 -5.665226 -0.877173 -4.125029 2.868854 0.031640 0.167450 -0.122120 0.150830 4.541817 34.332663 4.907681 -2.481014 31.784757 -9.473260 -41.356417 26.925095 -11.818240 2.278587 -1.629179 -0.076250 0.145410 -0.040140 -0.009030 
-0.358580 17.053620 -4.299600 -5.745106 36.196067 -7.318944 -15.295426 13.363501 2.485749 5.169400 -2.029503 -13.192157 -4.469097 6.140591 19.933702 -0.229747 4.301818 3.113352 0.283340 0.201980 0.091190 18.169414 -9.909342 4.242097 -3.453911 7.773665 -41.117282 7.313762 -8.064011 38.158043 -0.287929 -5.210701 2.419753 0.244230 0.225980 0.102310 -4.251577 -2.252552 -8.250547 11.983579 -7.806454 22.433245 -1.770150 -6.315252 11.477553 0.008696 -1.909261 -12.119031 -6.203361 -4.503980 35.544747 -1.704990 -7.656630 -4.038970 -5.479687 -34.767626 4.310669 9.800109 -27.313454 -4.112705 15.635867 -9.129001 -1.677329 -4.075355 2.969375 0.024990 0.158560 -0.130010 0.164100 5.692983 35.456540 4.560135 -2.586129 33.436605 -9.493934 -41.148269 28.401152 -12.146329 2.266455 -1.596401 -0.074560 0.169140 -0.035310 0.009590 
-0.391910 17.048230 -4.304850 -5.832681 37.722923 -8.512088 -15.303151 13.191494 2.307447 5.034203 -2.126429 -13.667206 -3.347869 6.206567 22.573778 -0.242538 4.488336 3.029624 0.339400 0.270240 0.091710 18.235445 -9.690097 4.527210 -3.738509 9.314889 -42.768693 7.733873 -10.502168 47.404828 -0.678318 -7.005734 1.811251 0.295460 0.224390 0.093240 -4.381275 -2.168802 -8.361625 12.943827 -7.756394 23.989508 -3.423264 -5.490485 11.799235 0.248634 -2.906059 -11.086765 -8.209562 -5.233422 35.896314 -0.305580 -9.840060 -6.087060 -7.105871 -34.662656 3.336500 6.524035 -30.586020 -5.268526 21.732924 -15.080333 -3.384378 -3.973403 3.037224 0.046870 0.126470 -0.116520 0.186170 6.818077 36.000464 4.739119 -3.252297 32.930657 -9.773720 -39.601158 32.768483 -12.389774 2.196603 -1.529702 -0.070030 0.212000 -0.040560 0.026050 
-0.424410 17.028210 -4.290850 -6.226666 39.633556 -9.483606 -15.326299 13.052633 2.171028 5.053497 -2.273842 -14.507279 -2.211342 6.212956 24.990867 -0.185718 4.648083 2.966931 0.345660 0.280100 0.062630 18.271514 -9.457996 4.801347 -3.688994 10.849528 -43.992994 8.537726 -13.116581 55.076353 -1.063173 -8.643742 1.309337 0.289310 0.227510 0.083390 -4.465199 -2.168463 -8.515316 13.875501 -7.501017 25.205384 -4.644801 -4.472730 11.584403 0.569452 -3.364344 -10.570414 -9.702629 -6.243542 37.134283 0.864770 -12.027560 -5.858330 -9.047573 -34.971867 2.437280 2.102485 -34.830344 -5.658193 27.352433 -20.998640 -5.693893 -3.882479 3.062243 0.036690 0.103670 -0.118730 0.206850 7.959007 36.363711 5.489213 -3.810272 30.450462 -9.902346 -35.457128 40.075392 -11.894384 2.128169 -1.472619 -0.050890 0.212970 -0.049450 0.055990 
-0.452580 16.982320 -4.268420 -6.984603 41.351051 -10.569754 -15.345836 12.905674 2.017108 5.083973 -2.401196 -15.373674 -0.516857 5.968921 27.222185 -0.165555 4.783524 2.909370 0.337580 0.276320 0.030270 18.312572 -9.251120 5.047462 -3.521282 12.314051 -45.077133 9.585687 -16.078705 61.992016 -1.463699 -10.224750 0.856996 0.285970 0.243670 0.072670 -4.580519 -2.097619 -8.638885 14.851079 -7.405875 26.151224 -5.878654 -3.748193 11.325861 0.892101 -3.529159 -9.883561 -10.526020 -6.819903 38.164642 2.246640 -13.517280 -6.139890 -10.710929 -34.715230 2.018594 -2.156524 -38.118327 -5.227145 32.501273 -29.476365 -8.916959 -3.804157 2.994224 0.040010 0.091530 -0.124300 0.214180 8.833993 35.925943 5.535348 -3.017466 28.869388 -9.760593 -30.421648 48.321721 -11.164140 2.041112 -1.414290 -0.051690 0.231610 -0.037180 0.074040 
-0.499040 16.926460 -4.232300 -7.351363 43.074380 -11.591028 -15.387046 12.803165 1.944179 5.492959 -2.596817 -16.290332 0.138810 6.141155 29.576604 -0.097510 5.058228 2.801834 0.330790 0.270520 0.013440 18.316210 -9.016285 5.257548 -3.110153 13.725639 -46.003456 9.716289 -18.887956 69.199929 -1.883483 -11.768463 0.450351 0.270300 0.238780 0.060060 -4.579967 -2.181212 -8.797489 14.530917 -7.235908 27.887636 -6.314578 -3.289521 10.834922 0.941554 -3.845761 -9.654091 -11.636823 -7.011107 39.273740 3.307670 -14.457390 -6.168710 -12.279135 -34.842547 2.019169 -4.714994 -39.625198 -4.974004 36.841205 -38.533249 -12.587394 -3.721156 2.900957 0.050210 0.068240 -0.116420 0.221060 10.244351 36.257935 5.555568 -2.158391 27.923859 -9.918235 -24.301261 56.226654 -9.875840 2.023532 -1.423308 -0.046370 0.233850 -0.041060 0.085990 
-0.555150 16.860590 -4.201580 -7.715148 45.545770 -12.629322 -15.434288 12.718358 1.896572 5.407896 -2.821459 -17.416864 1.505627 5.897382 31.484007 -0.062216 5.203387 2.740724 0.325740 0.254600 0.006390 18.299239 -8.860695 5.397134 -3.543744 14.490112 -46.772675 9.813405 -22.090007 75.953782 -2.291794 -13.271522 0.070977 0.253760 0.228040 0.052400 -4.626085 -2.200052 -8.927912 14.331802 -7.192733 29.606939 -6.888135 -3.027327 10.409365 0.882076 -3.930349 -9.646318 -12.348955 -7.528863 40.210379 4.227250 -15.458600 -6.103660 -13.479666 -35.844081 1.762045 -5.544710 -41.376344 -4.764804 39.037501 -45.437524 -15.335289 -3.669317 2.827699 0.066620 0.044310 -0.110730 0.222470 11.490320 37.110547 5.889687 -1.482672 27.288585 -10.078461 -18.504159 60.593010 -7.886297 2.048586 -1.488339 -0.045210 0.227370 -0.042390 0.088320 
-0.601060 16.810760 -4.159950 -9.090889 47.444844 -14.125678 -15.472350 12.671158 1.817239 6.189051 -2.787078 -18.180209 2.381195 5.726840 32.118185 -0.069902 5.234840 2.708881 0.327220 0.250000 0.027980 18.272749 -8.745232 5.520675 -3.762092 15.276917 -46.938330 11.012324 -25.636233 80.569235 -2.657182 -14.503714 -0.217101 0.243510 0.203140 0.050570 -4.697327 -2.148816 -9.046848 14.575480 -7.226585 30.485430 -7.483046 -2.883519 10.460121 1.213354 -3.378094 -9.987748 -11.846773 -7.643873 42.014326 4.473990 -15.211570 -6.226370 -14.748935 -37.429846 2.175178 -7.006432 -42.573995 -4.406613 43.724962 -51.114214 -19.427482 -3.642018 2.693725 0.097600 0.025300 -0.086900 0.208140 12.099266 38.283650 5.920849 1.050369 28.489173 -9.205500 -10.959236 59.528946 -3.978255 2.079573 -1.539636 -0.046230 0.224620 -0.042770 0.072730 
-0.645000 16.777410 -4.115090 -9.930904 49.187717 -15.259613 -15.519409 12.697087 1.743658 6.246462 -2.588166 -18.553807 3.937695 5.199839 32.200592 -0.084986 5.122529 2.735034 0.329430 0.255650 0.029920 18.218519 -8.688961 5.618482 -4.644389 15.772718 -46.613431 12.575402 -28.644197 83.207126 -2.917352 -15.360669 -0.403566 0.238720 0.189810 0.045830 -4.718070 -2.127848 -9.136199 14.151062 -6.657144 31.303810 -7.550009 -2.405670 10.796674 1.259451 -2.644325 -10.455334 -11.232732 -8.199174 44.404334 5.230270 -15.536500 -6.159450 -15.567685 -39.134801 2.306705 -8.554767 -44.382002 -3.498264 47.140620 -55.370601 -22.808455 -3.612171 2.569013 0.118840 0.008170 -0.067630 0.204550 12.882356 39.488661 6.310113 4.074060 29.305272 -8.085972 -4.823838 54.428781 -0.757112 2.108910 -1.557152 -0.043100 0.227150 -0.042890 0.071270 
-0.687490 16.752390 -4.055100 -11.093372 50.945807 -16.757294 -15.560733 12.724819 1.699128 7.165082 -2.412060 -18.820033 4.259507 5.257430 32.610508 -0.080386 5.186817 2.699227 0.348620 0.281850 0.038950 18.162202 -8.680460 5.629423 -5.092886 15.954592 -45.619224 13.566150 -30.746584 84.798170 -3.095591 -15.895061 -0.508995 0.249910 0.180850 0.034320 -4.777711 -2.057707 -9.202275 14.264813 -6.125846 31.690150 -7.518391 -1.935324 11.588101 1.184125 -2.065870 -11.024918 -10.847089 -8.310484 46.879054 6.244950 -15.609960 -6.152590 -16.228738 -41.057114 2.370724 -10.173966 -46.454389 -2.228934 47.948487 -56.758432 -23.832072 -3.604284 2.507403 0.137700 -0.009450 -0.050100 0.211960 13.742902 40.825351 6.821509 7.128036 30.442378 -7.045505 -3.971289 47.893224 -0.349414 2.129768 -1.512205 -0.042440 0.240100 -0.053930 0.071680 
